# xmcd
#
# Track frame offsets:
#	150
#	16122
#	37977
#	55715
#	73151
#
# Disc length: 1204 seconds
#
# Revision: 1
# Processed by: cddbd v1.5.2PL0 Copyright (c) Steve Scherf et al.
# Submitted via: audiograbber 1.83.01
#
DISCID=3604b205
DTITLE=Sarah Fullen - Ep 1
DYEAR=2007
DGENRE=
TTITLE0=this house
TTITLE1=time
TTITLE2=someday
TTITLE3=worn out bus
TTITLE4=it could rain
EXTD=
EXTT0=
EXTT1=
EXTT2=
EXTT3=
EXTT4=
PLAYORDER=
